<?xml version="1.0" encoding="UTF-8"?>
<svg id="Layer_1" xmlns="http://www.w3.org/2000/svg" xmlns:xlink="http://www.w3.org/1999/xlink" version="1.1" viewBox="0 0 116 42">
  <defs>
    <style>
      .st0 { fill: none; }
      .st1 { fill: #0060a0; }
      .st2 { fill: #0199d6; }
      .st3 { clip-path: url(#clippath); }
    </style>
    <clipPath id="clippath">
      <rect class="st0" width="116" height="42"/>
    </clipPath>
  </defs>
  <g class="st3">
    <path class="st2" d="M45.46,7.95c-1.43-5.71-6.94-9.11-12.28-7.58-2.81.81-5.02,2.82-6.28,5.38-1.05-1.57-2.42-2.9-4.03-3.9C19.91.01,16.45-.48,13.13.47c-.45.13-1.69.49-1.69.49,0,0,.2.76.28,1.1-.15-.1-.19-.12-.34-.22C8.41.01,4.94-.48,1.63.47,1.19.6.07.93,0,.95l4.88,19.32h0l2.03,7.92s0,0,0,0c1.17,4.66,3.97,8.56,7.88,10.98,2.61,1.61,5.5,2.43,8.43,2.43,1.47,0,2.95-.21,4.41-.62,8.49-2.43,13.75-11.4,12.31-20.49,1.89-.92,3.46-2.44,4.51-4.39,1.34-2.48,1.69-5.37,1-8.14M37.52,17.46c-.46.13-1.74.51-1.74.51,0,0,.31,1.23.45,1.79,1.92,7.65-2.34,15.55-9.5,17.6-3.47.99-7.09.48-10.2-1.44s-5.33-5.02-6.26-8.73c0,0,0,0,0,0,0,0,0,0,0,0L4.27,3.76c1.86-.15,3.72.3,5.37,1.32,2.17,1.34,3.72,3.5,4.36,6.08.03.11.07.22.11.32l2.88,11.27c.21.83.91,1.38,1.68,1.38.15,0,.3-.02.46-.07.93-.27,1.48-1.29,1.23-2.29L15.77,3.76c1.86-.15,3.72.3,5.37,1.32,2.17,1.34,3.72,3.5,4.36,6.08l2.15,8.53c.25,1,1.21,1.59,2.14,1.32.93-.27,1.48-1.29,1.23-2.28l-1.52-6c0-.07-.02-.13-.04-.2-.93-3.72,1.14-7.56,4.62-8.56,3.48-1,7.07,1.22,8,4.94.93,3.7-1.12,7.54-4.57,8.55M38.37,10.62c0,1.53-1.16,2.77-2.59,2.77s-2.59-1.24-2.59-2.77,1.16-2.77,2.59-2.77,2.59,1.24,2.59,2.77"/>
    <path class="st1" d="M63.2,13.26c.69.73,1.03,1.67,1.03,2.81v6.03h-1.59c-.43,0-.77-.37-.77-.83v-4.68c0-.63-.17-1.14-.51-1.52s-.76-.57-1.26-.57c-.65,0-1.16.25-1.54.74-.37.5-.56,1.23-.56,2.21v4.64h-1.61c-.43,0-.77-.37-.77-.83v-4.68c0-.63-.17-1.14-.51-1.52s-.76-.57-1.26-.57c-.65,0-1.16.24-1.52.73-.36.49-.54,1.23-.54,2.22v4.64h-1.61c-.43,0-.77-.37-.77-.83v-8.82h1.64c.41,0,.74.35.74.79.67-.72,1.57-1.08,2.69-1.08,1.3,0,2.29.53,2.96,1.58.8-1.06,1.89-1.58,3.29-1.58.96,0,1.79.36,2.48,1.09"/>
    <path class="st1" d="M68.67,9.06c.28.3.42.66.42,1.07s-.14.78-.42,1.06c-.28.28-.62.43-1.03.43s-.77-.14-1.04-.43c-.27-.28-.41-.64-.41-1.06s.14-.77.42-1.07c.28-.3.62-.45,1.03-.45s.75.15,1.03.45M66.45,21.28v-8.82h1.61c.43,0,.77.37.77.83v8.82h-1.61c-.43,0-.77-.37-.77-.83"/>
    <path class="st1" d="M71.17,21.28v-13.09h1.61c.43,0,.77.37.77.83v13.09h-1.61c-.43,0-.77-.37-.77-.83"/>
    <path class="st1" d="M75.82,21.28v-13.09h1.61c.43,0,.77.37.77.83v13.09h-1.61c-.43,0-.77-.37-.77-.83"/>
    <path class="st1" d="M82.76,9.06c.28.3.42.66.42,1.07s-.14.78-.42,1.06c-.28.28-.62.43-1.03.43s-.77-.14-1.04-.43c-.27-.28-.41-.64-.41-1.06s.14-.77.42-1.07c.28-.3.62-.45,1.03-.45s.75.15,1.03.45M80.53,21.28v-8.82h1.61c.43,0,.77.37.77.83v8.82h-1.61c-.43,0-.77-.37-.77-.83"/>
    <path class="st1" d="M57.86,29.85c.89.97,1.33,2.19,1.33,3.66s-.44,2.69-1.32,3.65c-.88.97-1.92,1.45-3.11,1.45s-2.17-.35-2.98-1.04v4.04h-1.68c-.39,0-.7-.34-.7-.75v-12.18h1.66c.4,0,.72.35.72.77.79-.71,1.79-1.06,2.98-1.06s2.21.49,3.1,1.46M56.16,35.61c.48-.52.71-1.22.71-2.1s-.24-1.58-.71-2.11c-.48-.53-1.08-.79-1.82-.79-.67,0-1.27.27-1.79.81-.52.54-.78,1.24-.78,2.09s.26,1.54.78,2.08c.52.53,1.11.8,1.79.8.73,0,1.34-.26,1.82-.78"/>
    <path class="st1" d="M62.69,25.24c.28.3.42.66.42,1.07s-.14.78-.42,1.06c-.28.28-.62.43-1.03.43s-.77-.14-1.04-.43c-.27-.28-.41-.64-.41-1.06s.14-.77.42-1.07.62-.45,1.03-.45.75.15,1.03.45M60.46,37.57v-8.89h1.61c.43,0,.77.37.77.83v8.82h-1.68c-.39,0-.7-.34-.7-.75"/>
    <path class="st1" d="M84,38.33h-1.68c-.39,0-.7-.34-.7-.75-.81.7-1.8,1.04-2.98,1.04s-2.23-.48-3.11-1.45c-.88-.97-1.32-2.18-1.32-3.65s.44-2.69,1.33-3.66c.89-.97,1.92-1.46,3.1-1.46s2.19.35,2.98,1.06v-.77h1.61c.43,0,.77.37.77.83v8.82ZM80.83,35.59c.52-.53.78-1.23.78-2.08s-.26-1.55-.78-2.09-1.11-.81-1.79-.81c-.73,0-1.34.26-1.82.79-.48.53-.71,1.23-.71,2.11s.24,1.58.71,2.1c.48.52,1.08.78,1.82.78.67,0,1.27-.27,1.79-.8"/>
    <path class="st1" d="M93.59,29.52c.66.75.99,1.73.99,2.93v5.88h-1.68c-.39,0-.7-.34-.7-.75v-4.58c0-.68-.17-1.23-.5-1.64-.33-.41-.77-.62-1.33-.62-1.49,0-2.24,1.11-2.24,3.32v4.27h-1.68c-.39,0-.7-.34-.7-.75v-8.89h1.61c.43,0,.77.37.77.83v.04c.72-.77,1.67-1.16,2.84-1.16,1.08,0,1.96.38,2.62,1.13"/>
    <path class="st1" d="M105.19,37.4c0,1.46-.43,2.59-1.3,3.39s-2.04,1.21-3.52,1.21c-2.1,0-3.56-.71-4.39-2.13l1.37-1.11c.31-.25.73-.21,1,.08.22.23.43.41.64.54.35.21.81.32,1.37.32.77,0,1.38-.24,1.83-.72.45-.48.68-1.13.68-1.97v-.15c-.69.59-1.63.89-2.84.89s-2.17-.46-3.05-1.37c-.88-.91-1.32-2.02-1.32-3.32s.44-2.39,1.32-3.3c.88-.91,1.9-1.36,3.05-1.36s2.13.3,2.84.89v-.6h1.52c.43,0,.77.37.77.83l.02,7.89ZM101.88,35.09c.67-.5,1-1.18,1-2.04s-.33-1.55-1-2.04c-.42-.32-.93-.47-1.44-.47-.71,0-1.3.24-1.77.7-.47.46-.7,1.07-.7,1.82s.23,1.35.7,1.82c.47.46,1.06.69,1.77.7.52,0,1.02-.15,1.44-.47"/>
    <path class="st1" d="M114.58,29.87c.95.95,1.42,2.16,1.42,3.64s-.47,2.7-1.42,3.64c-.95.95-2.09,1.42-3.44,1.42s-2.54-.47-3.49-1.42c-.95-.95-1.43-2.16-1.43-3.64s.48-2.7,1.43-3.64c.95-.95,2.11-1.42,3.49-1.42s2.5.47,3.44,1.42M112.91,35.59c.52-.53.78-1.23.78-2.08s-.26-1.54-.78-2.08c-.52-.53-1.11-.8-1.77-.8s-1.29.26-1.82.79-.79,1.22-.79,2.09.26,1.56.79,2.09c.52.53,1.13.79,1.82.79s1.25-.27,1.77-.8"/>
    <path class="st1" d="M68.38,41.6h-2.14l1.44-3.59-3.73-9.33h2.13c.31,0,.59.2.71.51l2.18,5.64,2.49-6.15h2.65l-5.03,12.42c-.12.3-.4.5-.71.5"/>
  </g>
</svg>
